<svg xmlns="http://www.w3.org/2000/svg" viewBox="0 0 32 32">
  <rect width="32" height="32" fill="#00040C"/>
  <g transform="translate(2, 6) scale(0.05)">
    <path d="M96.7567 304.612C98.1735 304.751 99.3467 305.76 99.686 307.134C100.025 308.506 99.4555 309.939 98.2647 310.715C95.362 312.602 92.2979 314.388 89.1599 316.021C77.6046 322.034 65.6934 324.958 52.7438 324.958C44.8247 324.958 37.4435 323.925 30.8055 321.885C24.4025 319.923 18.7912 317.07 14.1254 313.404C9.60771 309.853 6.19748 305.656 3.70085 300.573C1.24598 295.577 0 289.641 0 282.928C0 272.001 2.97664 262.561 9.09831 254.065C15.5754 245.081 24.4932 237.176 35.6016 230.572C46.1764 224.29 58.5578 219.012 72.4049 214.881C73.8217 214.464 75.3468 215.007 76.1659 216.225C76.985 217.446 76.9067 219.053 75.9701 220.186C66.5653 231.571 61.7983 245.188 61.7983 260.661C61.7983 272.815 64.8925 283.102 70.9931 291.237C74.9921 296.574 82.7025 303.226 96.7567 304.612ZM217.506 302.807C218.189 303.718 218.359 304.908 217.956 305.968C217.555 307.028 216.634 307.813 215.517 308.052L147.714 322.505C147.476 322.555 147.238 322.58 147.005 322.58C145.512 322.58 144.158 321.586 143.761 320.098L134.97 287.12C134.896 286.843 134.859 286.557 134.859 286.269V163.636C134.859 146.63 129.215 133.102 118.08 123.425C107.784 114.475 93.09 109.882 73.1618 109.387C71.5259 109.348 70.1602 108.144 69.9223 106.537C69.6867 104.931 70.6511 103.388 72.2064 102.886C77.8042 101.078 83.6973 99.5413 89.7243 98.3229C100.193 96.2027 111.354 95.1242 122.894 95.1242C139.632 95.1242 153.418 96.9514 163.874 100.551C173.778 103.96 181.592 108.755 187.1 114.804C192.7 120.95 196.461 128.19 198.596 136.937C200.914 146.426 202.091 157.224 202.091 169.031V282.264L217.506 302.807ZM364.071 293.137C367.823 303.733 373.079 312.161 379.692 318.192C380.813 319.215 381.102 320.859 380.393 322.197C379.802 323.31 378.646 323.98 377.418 323.98C377.172 323.98 376.92 323.953 376.673 323.898C369.216 322.212 361.954 319.939 355.092 317.134C338.112 310.194 322.676 299.754 309.213 286.109C293.907 270.186 282.153 251.571 274.246 230.749C266.292 209.796 262.259 186.618 262.259 161.854C262.259 137.1 266.329 113.892 274.357 92.8661C282.343 71.947 294.113 53.2361 309.336 37.2471C322.412 23.9869 337.703 13.7658 354.83 6.8244C361.711 4.03789 368.981 1.77124 376.434 0.0880901C377.916 -0.259997 379.445 0.447475 380.154 1.78694C380.862 3.12415 380.576 4.76832 379.455 5.78951C372.862 11.8046 367.643 20.1917 363.942 30.7151C356.491 51.8975 352.869 94.7915 352.869 161.858C352.869 228.925 356.535 271.87 364.071 293.137ZM548.01 92.7298C555.964 113.683 559.998 136.94 560 161.857C560 186.622 555.967 209.801 548.013 230.752C540.106 251.577 528.311 270.229 512.957 286.2C499.539 299.947 484.222 310.392 467.407 317.252C460.725 319.981 453.646 322.198 446.364 323.849C446.113 323.906 445.861 323.934 445.614 323.934C444.386 323.934 443.233 323.265 442.642 322.152C441.933 320.817 442.217 319.173 443.336 318.15C449.73 312.299 454.804 304.21 458.415 294.106C465.796 273.458 469.387 230.201 469.387 161.856C469.387 93.5119 465.796 50.2897 458.411 29.7179C454.8 19.6634 449.737 11.6106 443.364 5.78757C442.242 4.76411 441.956 3.12212 442.665 1.785C443.373 0.447871 444.901 -0.248406 446.382 0.0834106C453.729 1.7411 460.891 3.96887 467.668 6.70538C484.623 13.5676 499.874 23.8716 513.003 37.3294C528.333 53.2749 540.106 71.9103 548.01 92.7298Z" fill="white"/>
  </g>
</svg>
